<?xml version="1.0" encoding="UTF-8" standalone="no"?>
<svg
   xmlns:dc="http://purl.org/dc/elements/1.1/"
   xmlns:cc="http://creativecommons.org/ns#"
   xmlns:rdf="http://www.w3.org/1999/02/22-rdf-syntax-ns#"
   xmlns:svg="http://www.w3.org/2000/svg"
   xmlns="http://www.w3.org/2000/svg"
   xmlns:sodipodi="http://sodipodi.sourceforge.net/DTD/sodipodi-0.dtd"
   xmlns:inkscape="http://www.inkscape.org/namespaces/inkscape"
   version="1.1"
   width="512"
   height="512"
   x="0"
   y="0"
   viewBox="0 0 512 512"
   style="enable-background:new 0 0 512 512"
   xml:space="preserve"
   class=""
   id="svg46"
   sodipodi:docname="tick (1).svg"
   inkscape:version="0.92.4 (5da689c313, 2019-01-14)"><metadata
     id="metadata52"><rdf:RDF><cc:Work
         rdf:about=""><dc:format>image/svg+xml</dc:format><dc:type
           rdf:resource="http://purl.org/dc/dcmitype/StillImage" /></cc:Work></rdf:RDF></metadata><defs
     id="defs50" /><sodipodi:namedview
     pagecolor="#ffffff"
     bordercolor="#666666"
     borderopacity="1"
     objecttolerance="10"
     gridtolerance="10"
     guidetolerance="10"
     inkscape:pageopacity="0"
     inkscape:pageshadow="2"
     inkscape:window-width="1920"
     inkscape:window-height="1017"
     id="namedview48"
     showgrid="false"
     inkscape:zoom="0.921875"
     inkscape:cx="404.27934"
     inkscape:cy="227.56573"
     inkscape:window-x="-8"
     inkscape:window-y="-8"
     inkscape:window-maximized="1"
     inkscape:current-layer="svg46" /><g
     id="g44">
<g
   id="g6">
	<g
   id="g4">
		<path
   d="M383.841,171.838c-7.881-8.31-21.02-8.676-29.343-0.775L221.987,296.732l-63.204-64.893    c-8.005-8.213-21.13-8.393-29.35-0.387c-8.213,7.998-8.386,21.137-0.388,29.35l77.492,79.561    c4.061,4.172,9.458,6.275,14.869,6.275c5.134,0,10.268-1.896,14.288-5.694l147.373-139.762    C391.383,193.294,391.735,180.155,383.841,171.838z"
   fill="#000000"
   data-original="#000000"
   style=""
   class=""
   id="path2" />
	</g>
</g>
<g
   id="g12">
	<g
   id="g10">
		<path
   d="M256,0C114.84,0,0,114.84,0,256s114.84,256,256,256s256-114.84,256-256S397.16,0,256,0z M256,470.487    c-118.265,0-214.487-96.214-214.487-214.487c0-118.265,96.221-214.487,214.487-214.487c118.272,0,214.487,96.221,214.487,214.487    C470.487,374.272,374.272,470.487,256,470.487z"
   fill="#000000"
   data-original="#000000"
   style=""
   class=""
   id="path8" />
	</g>
</g>
<g
   id="g14">
</g>
<g
   id="g16">
</g>
<g
   id="g18">
</g>
<g
   id="g20">
</g>
<g
   id="g22">
</g>
<g
   id="g24">
</g>
<g
   id="g26">
</g>
<g
   id="g28">
</g>
<g
   id="g30">
</g>
<g
   id="g32">
</g>
<g
   id="g34">
</g>
<g
   id="g36">
</g>
<g
   id="g38">
</g>
<g
   id="g40">
</g>
<g
   id="g42">
</g>
</g><ellipse
     style="fill:#b4bac7;fill-opacity:1"
     id="path880"
     cx="270.10168"
     cy="248.40678"
     rx="159.45763"
     ry="133.42372" /><path
     style="fill:#ffffff;fill-opacity:1;stroke-width:2.16949153"
     d="m 238.74632,378.49411 c -16.96876,-2.81337 -45.84548,-13.1943 -60.32997,-21.68812 -6.84764,-4.01549 -19.99368,-14.72599 -29.21343,-23.80112 -34.46682,-33.92612 -45.48024,-75.59806 -31.80297,-120.33424 9.25291,-30.26478 38.08385,-61.45866 71.86628,-77.75631 30.76349,-14.84122 42.82518,-17.4441 80.83546,-17.4441 38.01029,0 50.07198,2.60288 80.83548,17.4441 31.46352,15.17894 57.33378,41.53763 69.03769,70.34107 18.14948,44.66619 7.43374,91.91243 -28.97439,127.74954 -9.21975,9.07514 -23.10894,20.18623 -30.86488,24.69131 -33.1748,19.26979 -81.09049,27.47928 -121.38927,20.79787 z"
     id="path882"
     inkscape:connector-curvature="0" /><path
     style="fill:#ffffff;fill-opacity:1;stroke-width:2.16949153"
     d="M 234.30508,468.58268 C 145.01856,457.68244 74.696379,397.50042 49.487286,310.41486 45.070264,295.15613 44.48935,288.58659 44.598899,255.1322 44.713664,220.08441 45.181136,215.67378 50.680539,197.75157 98.113694,43.16984 283.9519,-8.3153117 401.55555,100.54415 c 26.57976,24.6035 48.32095,59.962 59.78476,97.23025 5.5183,17.93967 5.97183,22.23457 6.05688,57.3578 0.0807,33.33806 -0.51691,40.07698 -4.90262,55.28266 -21.93556,76.05242 -79.90096,133.32832 -153.94135,152.11021 -19.88732,5.04483 -57.44479,8.109 -74.24814,6.05761 z m 81.48897,-91.90267 c 9.47259,-2.37302 26.49748,-8.9389 37.83307,-14.59083 35.57962,-17.74002 63.81813,-50.51208 72.6103,-84.26746 7.01435,-26.92994 3.15342,-58.77504 -10.22586,-84.34331 -8.445,-16.13872 -36.75693,-44.96332 -54.22453,-55.20644 -15.78682,-9.25751 -44.75878,-19.24123 -60.22771,-20.75443 -9.68276,-0.9472 -8.41038,-0.40012 6.74929,2.90194 58.37158,12.71445 106.28339,55.39883 116.62911,103.90425 8.67692,40.68135 -3.24096,75.92188 -36.98929,109.37546 -15.24326,15.11012 -22.67236,20.6351 -37.00202,27.51822 -44.6856,21.46434 -95.80233,24.34202 -141.60423,7.9718 -28.03903,-10.02156 -38.01865,-16.30072 -58.57817,-36.85728 -33.34988,-33.34513 -44.33426,-68.88587 -34.56507,-111.83773 9.95221,-43.75653 58.04591,-86.88455 110.43021,-99.02829 11.6687,-2.70504 12.01489,-2.92704 3.16919,-2.03232 -26.16228,2.64625 -63.18041,22.98267 -85.52715,46.98553 -22.76321,24.4502 -33.62712,51.00804 -33.62712,82.20461 0,33.70735 11.19924,59.00613 37.93533,85.69491 41.54396,41.47044 105.79569,57.74768 167.21465,42.36137 z m -30.00873,-261.706 c -0.72092,-0.7209 -2.59211,-0.79798 -4.1582,-0.17128 -1.73067,0.69256 -1.21661,1.20663 1.31074,1.31073 2.28699,0.0942 3.56836,-0.41855 2.84746,-1.13946 z"
     id="path884"
     inkscape:connector-curvature="0" /><path
     style="fill:#ffffff;fill-opacity:1;stroke-width:2.16949153"
     d="M 226.89572,467.66136 C 142.07252,454.29641 75.980093,396.8274 50.56101,314.33398 c -5.463196,-17.72991 -5.874952,-21.80313 -5.874952,-58.11703 0,-36.50839 0.390832,-40.32208 6.002974,-58.57627 C 94.146972,56.288298 255.05853,-1.7780654 376.40678,80.102535 c 39.29233,26.512775 69.95148,68.982655 84.93125,117.649035 5.58117,18.13207 5.97591,21.9941 5.97591,58.46538 0,36.3139 -0.41175,40.38712 -5.87496,58.11703 -27.95878,90.73562 -104.68129,150.67559 -197.61375,154.38707 -13.25303,0.52927 -29.87131,0.0525 -36.92951,-1.05969 z m 63.87305,-86.81563 c 10.11109,-1.25756 23.75326,-3.81986 30.31598,-5.694 12.41235,-3.54467 39.05084,-14.87278 39.05084,-16.60653 0,-0.54708 -7.35642,2.20325 -16.34759,6.11187 -16.63657,7.23222 -39.01709,12.45082 -68.26258,15.91724 -8.94915,1.06073 -13.31675,2.07019 -9.7058,2.24325 3.61096,0.17313 14.83808,-0.71428 24.94915,-1.97183 z m -36.39589,-1.41409 c -2.68474,-0.51712 -7.07796,-0.51712 -9.76271,0 -2.68475,0.51709 -0.48814,0.94019 4.88136,0.94019 5.36949,0 7.5661,-0.4231 4.88135,-0.94019 z m -26.54162,-4.12091 c -6.54365,-1.75831 -19.96738,-6.43714 -29.83051,-10.39737 -9.86312,-3.96026 -17.93295,-6.87569 -17.93295,-6.47873 0,3.34531 45.37765,20.17032 54.23728,20.10999 2.98306,-0.0195 0.0698,-1.47558 -6.47382,-3.23389 z m -55.35668,-22.97791 c -3.57966,-2.54542 -13.85009,-12.03315 -22.82318,-21.08381 -16.7233,-16.86793 -28.40857,-35.57517 -33.87453,-54.23059 -2.79175,-9.52832 -2.86465,-9.59416 -1.70458,-1.53979 3.58328,24.87847 27.94633,58.04754 57.15139,77.80877 7.97962,5.3993 9.04409,4.58698 1.2509,-0.95458 z m 211.33589,-10.43606 c 7.11954,-5.92494 17.55466,-17.233 23.18913,-25.12902 9.69568,-13.58724 20.45649,-37.93321 20.33421,-46.00541 -0.0308,-2.03386 -2.23859,2.70429 -4.90621,10.52921 -8.93627,26.21275 -24.99183,47.2015 -53.61404,70.0874 -4.17627,3.33928 -5.42297,4.99569 -2.77046,3.68093 2.65253,-1.31477 10.64784,-7.23818 17.76737,-13.16311 z M 116.95421,216.22505 c 1.26149,-4.09725 1.89335,-7.84981 1.40412,-8.33904 -2.35331,-2.35331 -5.96769,18.05664 -6.63792,37.48348 l -0.74847,21.69492 1.84433,-21.69492 c 1.01438,-11.9322 2.87646,-25.0472 4.13794,-29.14444 z m 312.02414,23.17834 c -0.45676,-5.07119 -0.83048,-0.92203 -0.83048,9.22034 0,10.14237 0.37372,14.29152 0.83048,9.22034 0.45675,-5.07119 0.45675,-13.36949 0,-18.44068 z m -2.67327,-18.98305 c -1.95419,-8.89739 -3.7069,-7.14469 -1.8983,1.8983 0.76234,3.81168 1.8383,6.4781 2.39102,5.92538 0.5527,-0.55272 0.331,-4.07337 -0.49272,-7.82368 z m -7.11044,-19.88749 c -13.77501,-30.69472 -53.90885,-65.78229 -85.09295,-74.39371 -2.98305,-0.82376 3.36272,2.92463 14.1017,8.32975 10.73898,5.40512 25.09336,14.30676 31.89862,19.78142 14.34624,11.5412 32.67818,34.95545 37.83168,48.32009 1.96575,5.09779 4.00286,8.83994 4.5269,8.3159 0.52404,-0.52404 -0.94563,-5.1831 -3.26595,-10.35345 z m -275.83265,-30.73927 8.94596,-11.20375 -9.87816,10.39754 c -9.02921,9.50395 -23.10776,31.00963 -23.10776,35.29824 0,0.97778 3.39615,-3.86209 7.547,-10.75525 4.15085,-6.89317 11.57268,-17.57472 16.49296,-23.73678 z m 30.19733,-25.49929 c 3.60246,-2.94664 3.96672,-3.68334 1.08475,-2.1939 -7.07637,3.65716 -10.99948,6.66134 -8.67797,6.64527 1.19322,-0.008 4.61017,-2.01138 7.59322,-4.45137 z m 26.29805,-13.94201 c 6.41743,-3.00184 9.22738,-4.83039 6.24432,-4.06344 -5.66383,1.45618 -21.6084,9.25861 -19.26127,9.42545 0.74189,0.0527 6.59952,-2.36017 13.01695,-5.36201 z m 25.18218,-8.86979 c -0.72091,-0.72091 -2.59209,-0.79798 -4.15819,-0.17129 -1.73068,0.69256 -1.2166,1.20664 1.31073,1.31074 2.28701,0.0942 3.56836,-0.41856 2.84746,-1.13946 z m 95.45763,0 c -0.72092,-0.72091 -2.59211,-0.79798 -4.1582,-0.17129 -1.73067,0.69256 -1.2166,1.20664 1.31074,1.31074 2.287,0.0942 3.56836,-0.41856 2.84746,-1.13946 z m -9.71752,-2.29557 c -1.49152,-0.60185 -3.9322,-0.60185 -5.42373,0 -1.49152,0.60184 -0.27118,1.09426 2.71187,1.09426 2.98305,0 4.20339,-0.49242 2.71186,-1.09426 z"
     id="path886"
     inkscape:connector-curvature="0" /><path
     style="fill:#ffffff;fill-opacity:1;stroke-width:2.16949153"
     d="M 226.89572,467.66303 C 133.54081,452.94169 60.016996,381.41906 45.457107,291.16286 42.093611,270.31268 43.882054,221.70424 48.649542,204.39508 61.858109,156.43917 89.937048,114.27904 127.83492,85.499327 c 19.3086,-14.662977 53.4698,-30.97414 77.18203,-36.852577 28.00934,-6.943724 74.43749,-6.987605 101.69923,-0.09612 71.07339,17.966607 128.10062,70.84375 151.91431,140.8589 8.15006,23.96217 10.68789,44.70261 9.42639,77.0375 -0.87447,22.41532 -2.38769,33.05824 -6.8086,47.88695 -26.81433,89.94113 -104.99195,151.03757 -197.65506,154.46901 -13.12542,0.48604 -29.6393,-0.0269 -36.6975,-1.13996 z m 93.0707,-93.15445 c 0.54285,-0.87836 -1.43855,-1.13336 -4.40312,-0.56665 -2.96456,0.56672 -5.8343,1.74907 -6.37717,2.62745 -0.54285,0.87837 1.43854,1.13337 4.40311,0.56665 2.96457,-0.56671 5.8343,-1.74906 6.37718,-2.62745 z m -106.1061,-3.45467 c -8.26157,-2.88577 -15.40056,-4.86734 -15.86441,-4.40349 -1.09339,1.09338 23.36724,9.62773 27.63121,9.64055 1.78983,0.004 -3.50523,-2.35129 -11.7668,-5.23706 z m -20.77557,-6.28606 c 0,-0.55463 -2.19661,-2.07289 -4.88136,-3.37391 -4.68746,-2.27154 -4.71408,-2.23149 -0.67009,1.0084 4.42633,3.54623 5.55145,4.02565 5.55145,2.36551 z m -21.69492,-12.63386 c 0,-0.34393 -4.63729,-4.32415 -10.30508,-8.84493 l -10.30509,-8.2196 9.49936,8.84493 c 8.74237,8.14011 11.11081,9.89223 11.11081,8.2196 z m 210.71742,-9.67975 c 2.69856,-3.44095 2.62183,-3.51768 -0.81911,-0.81912 -3.61383,2.83416 -4.76308,4.61573 -2.9775,4.61573 0.45049,0 2.15897,-1.70848 3.79661,-3.79661 z M 149.69492,332.41479 c 0,-0.4505 -1.70848,-2.15897 -3.79661,-3.79662 -3.44094,-2.69856 -3.51767,-2.62183 -0.81911,0.81912 2.83416,3.61383 4.61572,4.76307 4.61572,2.9775 z M 137.56321,319.1322 c -1.95457,-2.98305 -3.98723,-5.42373 -4.51703,-5.42373 -1.0632,0 0.98275,3.93017 4.23522,8.1356 3.73553,4.83005 3.93921,2.87004 0.28181,-2.71187 z m -8.67796,-13.01695 c -1.95458,-2.98305 -3.90869,-5.42372 -4.34249,-5.42372 -0.4338,0 0.32333,2.44067 1.6825,5.42372 1.35917,2.98306 3.31328,5.42373 4.34248,5.42373 1.0292,0 0.27208,-2.44067 -1.68249,-5.42373 z m 285.22063,-0.28036 c 3.61273,-7.9291 2.0367,-8.36816 -2.3847,-0.66432 -2.01023,3.50262 -2.88081,6.36841 -1.9346,6.36841 0.94618,0 2.88987,-2.56683 4.3193,-5.70409 z M 121.75636,292.71864 c -2.55749,-4.39801 -3.17508,-2.99031 -1.08156,2.46528 0.74401,1.93888 1.80978,3.06823 2.36835,2.50965 0.55858,-0.55858 -0.0204,-2.7973 -1.28679,-4.97493 z m 298.706,-1.84723 c -0.66796,-0.66797 -1.88106,0.5361 -2.69576,2.6757 -1.17734,3.09196 -0.92816,3.34114 1.21448,1.21448 1.48267,-1.47165 2.14925,-3.22222 1.48128,-3.89018 z m 4.57227,-11.8748 c -0.0785,-2.14576 -0.75438,-1.77625 -1.98378,1.08475 -2.56287,5.96412 -2.56287,9.38949 0,5.42372 1.15668,-1.78983 2.04939,-4.71864 1.98378,-6.50847 z M 112.13955,242.65763 c -0.54568,-2.08814 -0.99215,-0.37966 -0.99215,3.79661 0,4.17627 0.44647,5.88474 0.99215,3.79661 0.54569,-2.08814 0.54569,-5.50509 0,-7.59322 z m 2.15602,-18.30509 c -0.69256,-1.73067 -1.20663,-1.2166 -1.31074,1.31074 -0.0942,2.287 0.41856,3.56836 1.13946,2.84746 0.72091,-0.72091 0.79798,-2.5921 0.17129,-4.1582 z M 124.4888,197.528 c 0.74087,-1.93069 0.37717,-2.80151 -0.85263,-2.04146 -1.17955,0.72901 -2.14464,2.24412 -2.14464,3.36692 0,3.12067 1.55501,2.433 2.99727,-1.32546 z m 287.87452,-9.40079 c -3.79869,-5.91976 -8.29194,-11.91284 -9.98501,-13.31796 -1.69308,-1.40512 1.0453,3.73457 6.08525,11.42152 5.03996,7.68695 9.53322,13.68003 9.98501,13.31796 0.45182,-0.36208 -2.28655,-5.50176 -6.08525,-11.42152 z m -276.79194,-7.84246 c 3.63364,-5.04745 4.4912,-7.15051 2.0498,-5.02691 -2.3086,2.00809 -6.04465,6.88944 -8.30234,10.84746 -4.84433,8.49273 -2.44084,6.2553 6.25254,-5.82055 z m 10.8693,-14.1017 c 2.1597,-2.38644 3.43859,-4.33898 2.84198,-4.33898 -0.59661,0 -2.85178,1.95254 -5.01147,4.33898 -2.1597,2.38644 -3.43859,4.33898 -2.84198,4.33898 0.59661,0 2.85177,-1.95254 5.01147,-4.33898 z m 233.12204,-14.22014 c -1.5395,-1.85498 -4.83192,-4.38237 -7.3165,-5.61644 -2.70759,-1.34484 -1.90992,-0.0249 1.99107,3.29466 7.46787,6.35483 9.35558,7.17783 5.32543,2.32178 z m -14.0334,-9.69281 c -1.46586,-2.3718 -25.82804,-15.18406 -28.65389,-15.06931 -0.92895,0.0377 5.14491,3.8228 13.49745,8.41127 18.10374,9.9453 16.84684,9.39315 15.15644,6.65804 z m -172.44457,-8.62942 c 1.78983,-1.15668 2.27796,-2.10305 1.08474,-2.10305 -1.19322,0 -3.6339,0.94637 -5.42373,2.10305 -1.78983,1.15668 -2.27796,2.10305 -1.08474,2.10305 1.19322,0 3.6339,-0.94637 5.42373,-2.10305 z"
     id="path888"
     inkscape:connector-curvature="0" /><path
     style="fill:#ffffff;fill-opacity:1;stroke-width:2.16949153"
     d="M 224.789,467.67152 C 205.06613,464.55721 177.30655,455.42105 159.37901,446.14396 106.96614,419.02147 70.269837,375.00203 50.784259,315.87797 45.034635,298.43217 44.700732,295.27194 44.595248,257.30169 44.502296,223.84237 45.17651,214.82038 48.648409,203.06441 67.576194,138.97422 106.57276,91.921423 163.79661,64.127952 197.41272,47.800699 215.64149,43.777351 256,43.777351 c 40.35851,0 58.58729,4.023348 92.20339,20.350601 56.1321,27.263208 92.91724,70.609338 113.01157,133.168208 7.00848,21.81924 9.60432,67.35759 5.34476,93.76235 -11.06901,68.61646 -58.89065,130.55518 -123.37276,159.79277 -32.56044,14.7636 -84.60145,22.15682 -118.39796,16.82024 z m 92.49914,-92.4846 c -1.49153,-0.60184 -3.93221,-0.60184 -5.42373,0 -1.49153,0.60184 -0.27119,1.09427 2.71186,1.09427 2.98305,0 4.20339,-0.49243 2.71187,-1.09427 z m -111.18645,-5.9243 c 0,-0.46895 -1.51511,-1.43403 -3.36691,-2.14465 -1.93069,-0.74086 -2.80151,-0.37716 -2.04146,0.85263 1.27406,2.06148 5.40837,3.04912 5.40837,1.29202 z m -43.38983,-23.83089 c 0,-0.45049 -1.70847,-2.15897 -3.79661,-3.79661 -3.44093,-2.69856 -3.51767,-2.62183 -0.8191,0.81912 2.83416,3.61383 4.61571,4.76307 4.61571,2.97749 z m 219.39539,-2.97749 c 2.69856,-3.44095 2.62183,-3.51768 -0.81911,-0.81912 -3.61383,2.83416 -4.76308,4.61573 -2.9775,4.61573 0.45049,0 2.15897,-1.70848 3.79661,-3.79661 z M 137.56321,319.1322 c -1.95457,-2.98305 -3.98723,-5.42373 -4.51703,-5.42373 -1.0632,0 0.98275,3.93017 4.23522,8.1356 3.73553,4.83005 3.93921,2.87004 0.28181,-2.71187 z M 128,305.03051 c -1.27718,-2.38644 -2.81029,-4.33898 -3.4069,-4.33898 -0.59661,0 -0.0398,1.95254 1.23741,4.33898 1.27718,2.38644 2.81029,4.33898 3.4069,4.33898 0.59661,0 0.0398,-1.95254 -1.23741,-4.33898 z m 286.37288,0 c 1.27718,-2.38644 1.83402,-4.33898 1.23741,-4.33898 -0.59661,0 -2.12972,1.95254 -3.4069,4.33898 -1.27718,2.38644 -1.83402,4.33898 -1.23741,4.33898 0.59661,0 2.12972,-1.95254 3.4069,-4.33898 z m -2.16949,-117.15254 c -1.27718,-2.38644 -2.81029,-4.33899 -3.4069,-4.33899 -0.59661,0 -0.0397,1.95255 1.23741,4.33899 1.27718,2.38644 2.81029,4.33898 3.4069,4.33898 0.59661,0 0.0397,-1.95254 -1.23741,-4.33898 z"
     id="path890"
     inkscape:connector-curvature="0" /><path
     style="fill:#ffffff;fill-opacity:1;stroke-width:0.54237288"
     d="m 245.74003,469.99734 c -31.1152,-1.87284 -59.0979,-9.22417 -85.51064,-22.46447 C 118.50166,426.61539 84.237404,392.05739 63.744187,350.2205 52.270104,326.79616 45.769689,304.1518 42.863227,277.48115 41.697022,266.77966 41.688305,245.08119 42.845929,234.42389 47.973998,187.21393 67.157284,144.93715 99.120275,110.40455 117.12993,90.947037 139.74687,74.26129 163.65952,62.790451 c 21.2782,-10.207108 43.51835,-16.660922 67.70763,-19.647916 11.12908,-1.374265 38.23571,-1.373641 49.35593,0.0011 41.5549,5.137368 80.0324,21.606527 111.65139,47.789078 6.84128,5.665017 19.58052,18.146147 25.52064,25.003567 25.47932,29.41395 42.57539,65.38953 49.09009,103.30114 2.43759,14.18528 2.75483,18.43254 2.75483,36.88136 0,18.37707 -0.30651,22.47539 -2.73804,36.61017 -14.0615,81.74127 -75.95487,149.24241 -156.17721,170.32744 -21.14633,5.55795 -45.28791,8.13251 -65.08475,6.94092 z m 71.71041,-94.22171 c 0.73318,-0.73318 -0.45484,-0.96981 -3.06602,-0.61068 -3.40938,0.4689 -3.09752,1.60245 0.33444,1.21562 1.31824,-0.14858 2.54745,-0.4208 2.73158,-0.60494 z m -111.33523,-6.24977 c 0.26198,-0.42388 -3.95963,-2.22061 -5.21756,-2.22061 -1.16062,0 -0.2352,1.05606 1.58815,1.81235 2.38307,0.98845 3.21313,1.08182 3.62941,0.40826 z m -43.08704,-23.81208 c 0,-0.46348 -5.122,-5.00554 -6.50848,-5.77156 -0.44745,-0.24722 0.64321,1.049 2.42371,2.8805 3.07587,3.16398 4.08477,3.87804 4.08477,2.89106 z m 218.26985,-2.34831 c 1.37828,-1.53298 2.39136,-2.90184 2.25128,-3.04192 -0.34628,-0.34627 -5.59289,4.11729 -5.95801,5.06877 -0.6482,1.68917 1.34619,0.59863 3.70673,-2.02685 z M 140.24851,323.96609 c 0,-0.54373 -6.36632,-9.11914 -7.11221,-9.58013 -1.2773,-0.7894 0.90616,3.05665 4.10135,7.22437 2.07779,2.71021 3.01086,3.44026 3.01086,2.35576 z m -10.99783,-15.37271 c -0.82978,-2.11153 -4.71332,-8.11643 -4.72139,-7.30042 -0.009,0.96211 1.57854,4.40827 3.11422,6.75805 0.84111,1.28699 2.06165,1.69888 1.60717,0.54237 z m 283.81139,-1.40113 c 0,-0.70621 -0.64476,-1.17588 -1.16924,-0.85173 -0.56094,0.34668 -0.0773,1.30371 0.65888,1.30371 0.2807,0 0.51036,-0.20339 0.51036,-0.45198 z m 2.71186,-6.05649 c 0,-0.29831 -0.10763,-0.54238 -0.23917,-0.54238 -0.13155,0 -0.39002,0.24407 -0.57439,0.54238 -0.18436,0.2983 -0.0767,0.54237 0.23918,0.54237 0.31591,0 0.57438,-0.24407 0.57438,-0.54237 z m -2.17464,-109.96611 c -0.007,-1.29338 -4.44007,-8.16849 -4.72863,-7.33351 -0.18503,0.53543 4.10639,8.26118 4.59819,8.27802 0.0746,0.003 0.13327,-0.42247 0.13044,-0.94451 z"
     id="path892"
     inkscape:connector-curvature="0" /><path
     style="fill:#ffffff;fill-opacity:1;stroke-width:0.54237288"
     d="m 244.65529,469.98512 c -6.65237,-0.33905 -19.73504,-1.90035 -26.83877,-3.20297 C 176.0695,459.12696 137.87748,439.4935 107.37014,410.00472 71.525157,375.35652 49.426738,330.95482 43.199206,281.06796 40.807866,261.91166 41.661565,236.68087 45.373861,216.79677 58.846324,144.63447 109.5227,83.297382 177.67224,56.666994 c 18.13432,-7.086239 35.01716,-11.261685 55.8644,-13.816316 8.90354,-1.091043 37.40355,-0.91577 47.18644,0.290194 38.62268,4.761118 73.68407,18.88992 104.40678,42.073137 14.66015,11.062475 30.44074,26.845771 41.56264,41.569761 23.0822,30.55792 37.14331,65.17507 42.06996,103.57232 1.22787,9.56977 1.39064,40.10395 0.26166,49.08475 -5.8176,46.27797 -23.18959,85.06231 -53.38508,119.18643 -42.55292,48.08935 -106.21731,74.65885 -170.98375,71.35785 z m 72.86109,-94.27543 c 0.14787,-0.14787 0.11741,-0.42029 -0.0677,-0.60538 -0.54003,-0.54003 -5.26799,0.34477 -5.26799,0.98586 0,0.567 4.72513,0.23006 5.33567,-0.38048 z m -111.64075,-6.17606 c 0,-0.48273 -3.85759,-2.22838 -4.92434,-2.22838 -1.0068,0 0.12985,1.173 1.8708,1.93063 1.99414,0.86782 3.05354,0.97112 3.05354,0.29775 z m -43.22729,-24.12048 c -0.54126,-0.92289 -5.51816,-5.23047 -6.02604,-5.21562 -0.46391,0.0136 5.6361,5.95517 6.11394,5.95517 0.19021,0 0.15065,-0.3328 -0.0879,-0.73955 z m 217.64615,-1.02316 c 2.75175,-3.00398 3.81856,-4.42884 2.93707,-3.92284 -1.87219,1.0747 -5.42373,4.34017 -5.42373,4.98685 0,1.13888 0.7709,0.80902 2.48666,-1.06401 z M 140.24851,323.98346 c 0,-0.52556 -7.01566,-9.83076 -7.41191,-9.83076 -0.56967,0 2.72792,5.36107 4.75962,7.73796 2.22836,2.60696 2.65229,2.94146 2.65229,2.0928 z m -10.84746,-15.02407 c 0,-0.57132 -4.48037,-7.86304 -4.69781,-7.6456 -0.59944,0.59944 3.26411,7.95756 4.1783,7.95756 0.28573,0 0.51951,-0.14038 0.51951,-0.31196 z m 283.66102,-2.12872 c 0,-0.44746 -0.24407,-0.81356 -0.54238,-0.81356 -0.2983,0 -0.54237,0.3661 -0.54237,0.81356 0,0.44746 0.24407,0.81356 0.54237,0.81356 0.29831,0 0.54238,-0.3661 0.54238,-0.81356 z m 2.71186,-5.69491 c 0,-0.29831 -0.10763,-0.54238 -0.23917,-0.54238 -0.13155,0 -0.39002,0.24407 -0.57439,0.54238 -0.18436,0.2983 -0.0767,0.54237 0.23918,0.54237 0.31591,0 0.57438,-0.24407 0.57438,-0.54237 z m -3.26254,-111.86441 c -0.0121,-0.9887 -0.95999,-2.33114 -1.36208,-1.92905 -0.18954,0.18954 -0.0722,0.85366 0.26078,1.47581 0.68443,1.27887 1.11357,1.45549 1.1013,0.45324 z m -2.70356,-4.74576 c 0,-0.29831 -0.25847,-0.54238 -0.57438,-0.54238 -0.31591,0 -0.42354,0.24407 -0.23918,0.54238 0.18436,0.2983 0.44284,0.54237 0.57438,0.54237 0.13155,0 0.23918,-0.24407 0.23918,-0.54237 z"
     id="path894"
     inkscape:connector-curvature="0" /><path
     style="fill:#ffffff;fill-opacity:1;stroke-width:0.54237288"
     d="M 244.3841,470.02724 C 212.5343,467.78601 185.11399,460.29808 158.37478,446.53983 113.48569,423.44284 77.851,385.0228 58.421869,338.7742 47.323982,312.35708 41.949232,285.49183 41.939813,256.38999 c -0.0044,-13.45022 0.531704,-21.0244 2.335583,-33.00042 C 54.368975,156.3779 97.156077,96.973369 157.87563,65.669875 181.4967,53.492213 205.81065,46.13709 233.26546,42.863973 c 7.92074,-0.944298 37.5298,-0.939329 45.55932,0.0076 41.60613,4.906891 78.81414,20.300583 110.91525,45.887838 8.77584,6.995064 26.52804,24.739709 33.40747,33.393239 25.11324,31.58956 40.10637,67.07197 45.60686,107.93221 0.79366,5.8957 0.98434,10.9671 0.97881,26.0339 -0.007,19.00006 -0.18436,21.52171 -2.49916,35.52542 -11.04432,66.814 -54.50546,125.40972 -115.77738,156.09482 -22.16806,11.10181 -47.24746,18.46726 -72.36066,21.25127 -7.58885,0.84128 -28.58078,1.46836 -34.71187,1.03692 z m 73.17514,-94.37717 c 0.12429,-0.11508 0.0797,-0.3555 -0.099,-0.53426 -0.50611,-0.50611 -4.73712,0.35379 -4.73712,0.96275 0,0.49419 4.24588,0.118 4.83616,-0.42849 z m -111.68361,-6.11644 c 0,-0.48273 -3.85759,-2.22838 -4.92434,-2.22838 -1.0068,0 0.12985,1.173 1.8708,1.93063 1.99414,0.86782 3.05354,0.97112 3.05354,0.29775 z m 175.72152,-26.62595 c 0.94906,-1.19829 1.57756,-2.1787 1.39668,-2.1787 -0.55014,0 -5.186,4.44233 -5.186,4.96951 0,0.91472 2.05067,-0.59559 3.78932,-2.79081 z m -220.76767,0.75983 c -1.02801,-1.06855 -2.35724,-2.18479 -2.95385,-2.48053 -0.59661,-0.29573 0.0604,0.57854 1.45995,1.94283 2.99888,2.92325 4.20743,3.35825 1.4939,0.5377 z m -23.87137,-24.3261 c -1.88277,-2.54209 -3.52061,-4.52459 -3.63965,-4.40555 -0.35406,0.35406 2.4057,4.77114 4.53584,7.25972 3.31095,3.8681 2.74306,2.05946 -0.89619,-2.85417 z m -7.55706,-10.31219 c 0,-0.13317 -0.85933,-1.70836 -1.90963,-3.50041 -2.11507,-3.60882 -3.30451,-4.79806 -2.39055,-2.39015 1.14263,3.01036 4.30018,7.3357 4.30018,5.89056 z m 283.66102,-1.89535 c 0,-0.2807 -0.24407,-0.66121 -0.54238,-0.84557 -0.2983,-0.18437 -0.54237,0.0453 -0.54237,0.51036 0,0.46506 0.24407,0.84557 0.54237,0.84557 0.29831,0 0.54238,-0.22966 0.54238,-0.51036 z m -0.55068,-117.86252 c -0.0121,-0.9887 -0.95999,-2.33114 -1.36208,-1.92905 -0.18954,0.18954 -0.0722,0.85366 0.26078,1.47581 0.68443,1.27887 1.11357,1.45549 1.1013,0.45324 z m -2.70356,-4.74576 c 0,-0.29831 -0.25847,-0.54238 -0.57438,-0.54238 -0.31591,0 -0.42354,0.24407 -0.23918,0.54238 0.18436,0.2983 0.44284,0.54237 0.57438,0.54237 0.13155,0 0.23918,-0.24407 0.23918,-0.54237 z"
     id="path896"
     inkscape:connector-curvature="0" /><path
     style="fill:#ffffff;fill-opacity:1;stroke-width:0.54237288"
     d="m 240.3163,469.74238 c -26.92494,-2.08542 -52.95157,-9.10995 -77.142,-20.82044 C 140.49681,437.94386 122.82237,425.33628 104.68941,407.20332 94.131077,396.64498 86.004561,386.89163 78.450808,375.71203 46.346748,328.19782 34.803502,270.85999 45.905649,214.05311 58.407171,150.08599 101.27332,93.976482 160.19953,64.448509 c 22.05141,-11.049979 44.65518,-17.892277 70.2048,-21.251416 8.62841,-1.134422 31.39014,-1.591148 41.64079,-0.835544 43.46602,3.203996 85.07038,19.841114 119.32203,47.715542 11.00162,8.953259 25.97826,24.401979 34.77604,35.872219 19.74867,25.74765 33.80628,56.78783 40.03804,88.40678 2.60035,13.19382 3.34374,20.51121 3.66524,36.07828 0.36159,17.5081 -0.22561,26.91537 -2.53843,40.66749 -7.5314,44.78184 -27.79805,83.96403 -60.18888,116.36521 -22.48161,22.4888 -47.65735,38.62787 -77.61705,49.75692 -27.37916,10.17047 -60.13635,14.76837 -89.18581,12.51839 z m 76.08504,-93.75917 c 0.95839,0 1.24152,-0.17853 0.8709,-0.54915 -0.65417,-0.65417 -4.00678,-0.0894 -4.00678,0.67498 0,0.29293 0.38606,0.38445 0.85792,0.20339 0.47185,-0.18107 1.49694,-0.32922 2.27796,-0.32922 z m -110.80198,-6.51669 c -0.35328,-0.57163 -3.81266,-2.16127 -4.70333,-2.16127 -0.95522,0 0.17898,1.11451 1.90247,1.86944 2.08667,0.91402 3.26102,1.03638 2.80086,0.29183 z m 175.99779,-26.55884 c 0.94906,-1.19829 1.57756,-2.1787 1.39668,-2.1787 -0.55014,0 -5.186,4.44233 -5.186,4.96951 0,0.91472 2.05067,-0.59559 3.78932,-2.79081 z m -220.50141,1.02886 c -0.87615,-0.92059 -2.08113,-1.90846 -2.67774,-2.19527 -0.59661,-0.28682 0.0136,0.46573 1.35593,1.67232 2.89923,2.60598 3.54893,2.86301 1.32181,0.52295 z M 138.3746,321.23876 c -1.95405,-2.8197 -5.37797,-6.5837 -4.70812,-5.17576 0.28699,0.60321 1.65824,2.64048 3.04722,4.52729 2.70711,3.67735 4.15044,4.24087 1.6609,0.64847 z m -9.57134,-13.18775 c -1.6,-3.07022 -3.35041,-5.8597 -3.55107,-5.65904 -0.38863,0.38862 0.92634,3.29315 2.31537,5.11426 1.55927,2.04431 2.15373,2.30639 1.2357,0.54478 z m 284.25881,-0.94915 c 0,-0.29831 -0.24407,-0.54238 -0.54238,-0.54238 -0.2983,0 -0.54237,0.24407 -0.54237,0.54238 0,0.2983 0.24407,0.54237 0.54237,0.54237 0.29831,0 0.54238,-0.24407 0.54238,-0.54237 z m -1.11076,-119.08219 c -0.95776,-1.15403 -1.26941,-0.56248 -0.42013,0.79744 0.39257,0.6286 0.79865,0.88823 0.90241,0.57695 0.10376,-0.31128 -0.11327,-0.92976 -0.48228,-1.37439 z m -2.14348,-3.49408 c 0,-0.29831 -0.25847,-0.54238 -0.57438,-0.54238 -0.31591,0 -0.42354,0.24407 -0.23918,0.54238 0.18436,0.2983 0.44284,0.54237 0.57438,0.54237 0.13155,0 0.23918,-0.24407 0.23918,-0.54237 z"
     id="path898"
     inkscape:connector-curvature="0" /><path
     style="fill:#ffffff;fill-opacity:1;stroke-width:0.54237288"
     d="M 240.3163,469.80575 C 192.26936,465.5776 149.59316,447.59061 114.75698,416.88552 57.555229,366.46709 31.75029,291.94205 45.380618,216.52559 52.852993,175.18101 73.798352,135.55357 104.4519,104.76606 c 23.64296,-23.74628 52.24175,-41.452564 84.06779,-52.048639 16.69135,-5.55717 34.17762,-9.120102 50.735,-10.337557 10.54608,-0.775448 33.73552,-0.329627 42.43122,0.815747 41.01861,5.402864 77.16343,20.71371 108.83542,46.102383 7.0898,5.683276 22.67672,20.974886 29.10955,28.558036 28.57001,33.67891 46.55749,77.11777 49.8829,120.4647 0.81913,10.67749 0.34346,35.828 -0.83925,44.37435 -3.56291,25.74571 -10.39065,47.96 -21.42131,69.69491 -10.83456,21.34852 -23.02424,38.01991 -40.65997,55.60921 -27.92043,27.84692 -62.02356,46.96756 -100.42366,56.30463 -7.55956,1.83813 -20.80242,4.11177 -28.97193,4.97414 -7.42741,0.78403 -30.25695,1.11073 -36.88136,0.52778 z m 76.74577,-94.35135 c 0,-0.30385 -0.74986,-0.38608 -1.76271,-0.19328 -2.47175,0.4705 -2.55049,0.72209 -0.22599,0.72209 1.09378,0 1.9887,-0.23796 1.9887,-0.52881 z m -111.18644,-5.73897 c 0,-0.48072 -4.93881,-2.53352 -5.27838,-2.19396 -0.16878,0.16878 0.76676,0.79398 2.07897,1.38935 2.49358,1.13135 3.19941,1.30886 3.19941,0.80461 z m 175.63666,-26.80832 c 0.66516,-0.89967 1.02931,-1.63576 0.80922,-1.63576 -0.55394,0 -4.51368,3.91401 -4.51368,4.46156 0,0.75322 2.42729,-1.09834 3.70446,-2.8258 z m -219.56887,1.99113 c 0,-0.0933 -0.79322,-0.88656 -1.76271,-1.76271 l -1.76271,-1.593 1.593,1.76272 c 1.4849,1.64309 1.93242,2.01201 1.93242,1.59299 z M 137.0109,319.59886 c -2.8849,-3.89151 -3.80835,-4.78708 -2.67959,-2.5987 0.99226,1.92373 4.95751,6.97099 5.24821,6.68029 0.1444,-0.1444 -1.01148,-1.98112 -2.56862,-4.08159 z m -8.65673,-12.36141 c -1.34659,-2.56224 -3.28382,-5.42504 -3.28853,-4.85975 -0.01,1.17731 3.43915,6.89365 4.15931,6.89365 0.10898,0 -0.28287,-0.91526 -0.87078,-2.0339 z m 284.43671,-0.13559 c 0.18436,-0.29831 0.0767,-0.54238 -0.23917,-0.54238 -0.31591,0 -0.57439,0.24407 -0.57439,0.54238 0,0.2983 0.10763,0.54237 0.23918,0.54237 0.13154,0 0.39002,-0.24407 0.57438,-0.54237 z m -0.71412,-118.89718 c -0.38919,-0.38919 -0.64181,-0.42121 -0.64181,-0.0814 0,0.72395 0.64141,1.36537 1.00339,1.00339 0.15412,-0.15412 -0.009,-0.56903 -0.36158,-0.92203 z"
     id="path900"
     inkscape:connector-curvature="0" /><path
     style="fill:#ffffff;fill-opacity:1;stroke-width:0.54237288"
     d="M 242.21461,470.00879 C 207.51236,467.3732 174.87991,457.08648 145.67224,439.57576 130.53557,430.50095 118.53843,421.02119 104.68683,407.19038 86.599402,389.1301 75.257728,373.37848 64.057203,350.76287 57.632367,337.79013 53.521312,327.36363 50.049919,315.23745 35.409176,264.09481 40.207069,209.45164 63.503291,162.01711 81.893167,124.57262 110.49156,93.545691 146.75698,71.693636 c 7.86953,-4.741855 24.83679,-12.89948 33.62712,-16.167459 19.65352,-7.306583 39.00025,-11.634131 58.84394,-13.162434 10.45846,-0.80548 34.00842,-0.328508 43.12216,0.87338 42.20527,5.565881 81.65269,23.046584 112.81356,49.992118 7.74469,6.697006 22.03021,21.399709 27.7804,28.591649 24.90134,31.14489 40.1198,66.81196 45.73136,107.17927 1.16914,8.41026 1.65921,34.68248 0.83941,44.99965 -3.14005,39.51756 -17.88609,78.13288 -42.1961,110.49851 -29.64033,39.46229 -72.70372,67.97065 -120.24781,79.60516 -16.33292,3.99683 -30.16294,5.69912 -48.31404,5.94682 -7.45762,0.10178 -14.90169,0.0831 -16.54237,-0.0415 z m 74.84746,-94.26475 c 0,-0.13155 -0.24407,-0.39002 -0.54238,-0.57439 -0.2983,-0.18436 -0.54237,-0.0767 -0.54237,0.23918 0,0.31591 0.24407,0.57438 0.54237,0.57438 0.29831,0 0.54238,-0.10763 0.54238,-0.23917 z M 138.3929,321.8686 c -0.93394,-0.89453 -0.94549,-0.88297 -0.25943,0.25944 0.39492,0.65762 0.83479,1.07892 0.97748,0.93624 0.14268,-0.14269 -0.18044,-0.68074 -0.71805,-1.19568 z m -1.37224,-2.15657 c -0.30478,-0.52204 -1.20243,-1.68136 -1.99478,-2.57627 -1.4809,-1.6726 -1.38482,-1.43477 0.93121,2.30508 0.88142,1.42328 1.88571,1.67935 1.06357,0.27119 z m -8.60492,-12.18532 c -0.38919,-0.38918 -0.64181,-0.4212 -0.64181,-0.0813 0,0.72395 0.64142,1.36536 1.00339,1.00339 0.15413,-0.15412 -0.009,-0.56904 -0.36158,-0.92204 z m 284.37514,-0.42485 c 0.18436,-0.29831 0.0767,-0.54238 -0.23917,-0.54238 -0.31591,0 -0.57439,0.24407 -0.57439,0.54238 0,0.2983 0.10763,0.54237 0.23918,0.54237 0.13154,0 0.39002,-0.24407 0.57438,-0.54237 z m -285.55932,-1.56704 c 0,-0.26525 -0.50021,-1.05847 -1.11157,-1.76271 l -1.11158,-1.28042 0.85432,1.76271 c 0.84066,1.73453 1.36883,2.22859 1.36883,1.28042 z m 284.8452,-117.33014 c -0.38919,-0.38919 -0.64181,-0.42121 -0.64181,-0.0814 0,0.72395 0.64141,1.36537 1.00339,1.00339 0.15412,-0.15412 -0.009,-0.56903 -0.36158,-0.92203 z"
     id="path902"
     inkscape:connector-curvature="0" /><path
     style="fill:#ffffff;fill-opacity:1;stroke-width:0.54237288"
     d="m 242.75698,470.03952 c -1.04407,-0.12245 -4.70508,-0.48615 -8.13559,-0.80824 -14.53348,-1.3645 -31.41369,-4.99829 -46.37288,-9.98265 -24.00143,-7.9972 -46.07095,-20.05839 -66.44068,-36.31044 -8.2821,-6.6079 -25.216342,-23.3953 -31.777628,-31.50209 C 47.04776,338.32921 31.715194,269.66072 48.129584,203.77982 c 4.253423,-17.07156 11.658189,-35.83219 20.25225,-51.31087 4.213239,-7.58843 14.429741,-22.89859 19.491959,-29.2101 20.002557,-24.938965 43.235057,-43.972066 70.815397,-58.015155 22.82556,-11.622102 45.82537,-18.751742 71.05084,-22.024839 9.12173,-1.183578 32.74196,-1.651144 43.12216,-0.853609 26.91009,2.067563 52.35355,9.073672 77.01344,21.206413 22.53636,11.087962 37.68047,21.810141 55.52009,39.30877 18.42057,18.06847 30.54486,34.47041 41.50871,56.15363 11.4527,22.65006 17.76999,42.67894 21.57634,68.40752 1.11008,7.50348 1.2339,10.3473 1.23683,28.40604 0.004,21.84083 -0.28906,25.29967 -3.54245,41.87675 -10.8731,55.40209 -44.08271,104.93343 -91.62156,136.65136 -28.42619,18.96596 -60.61295,30.71377 -94.91525,34.64301 -6.8974,0.79008 -32.74799,1.50556 -36.88136,1.02078 z M 139.16376,322.62589 c 0,-0.11262 -0.42712,-0.53974 -0.94915,-0.94915 -0.86024,-0.67464 -0.87942,-0.65546 -0.20478,0.20478 0.70854,0.90346 1.15393,1.19077 1.15393,0.74437 z m -2.10017,-2.91993 c -0.28117,-0.52537 -1.0577,-1.44063 -1.72561,-2.0339 -1.19083,-1.05775 -1.18917,-1.03934 0.0854,0.94851 1.29877,2.02567 2.60665,2.89111 1.64025,1.08539 z m -8.64785,-12.17925 c -0.38919,-0.38918 -0.64181,-0.4212 -0.64181,-0.0813 0,0.72395 0.64142,1.36536 1.00339,1.00339 0.15413,-0.15412 -0.009,-0.56904 -0.36158,-0.92204 z m 284.37514,-0.42485 c 0.18436,-0.29831 0.0767,-0.54238 -0.23917,-0.54238 -0.31591,0 -0.57439,0.24407 -0.57439,0.54238 0,0.2983 0.10763,0.54237 0.23918,0.54237 0.13154,0 0.39002,-0.24407 0.57438,-0.54237 z m -286.31756,-2.79748 c -0.98508,-1.40639 -1.16854,-0.94536 -0.28256,0.7101 0.32247,0.60254 0.71347,0.96838 0.86888,0.81297 0.15541,-0.15541 -0.10843,-0.84079 -0.58632,-1.52307 z M 412.16448,188.56999 c -0.17664,-0.46032 -0.43749,-0.72063 -0.57966,-0.57846 -0.14217,0.14217 -0.0976,0.5188 0.099,0.83695 0.53481,0.86534 0.8474,0.69723 0.48065,-0.25849 z"
     id="path904"
     inkscape:connector-curvature="0" /><path
     style="fill:#ffffff;fill-opacity:1;stroke-width:0.54237288"
     d="M 241.40105,470.01461 C 196.75821,466.31015 156.31154,450.46775 122.3502,423.38403 113.16848,416.06173 96.061709,399.00689 88.949685,390.08491 42.69121,332.05401 29.406295,256.17455 53.305019,186.49321 59.606458,168.12016 66.2804,154.69964 77.614187,137.61033 110.75462,87.640517 162.7118,54.09211 222.03679,44.357606 c 12.30609,-2.01928 23.25524,-2.65664 39.70324,-2.311162 18.68903,0.39255 31.32738,2.114141 48.54238,6.612421 31.32956,8.186419 63.23916,25.137429 86.51211,45.956945 7.50282,6.71187 20.78536,20.46819 25.80296,26.72333 23.7232,29.57429 38.79647,63.18018 44.93858,100.1907 1.85907,11.20221 2.47677,19.91795 2.46657,34.80332 -0.01,14.64575 -0.56813,22.39089 -2.44673,33.95514 -6.9566,42.82335 -27.04624,82.91219 -57.15885,114.06042 -17.8971,18.51262 -36.88175,32.44223 -59.70706,43.80888 -22.36892,11.13938 -47.60622,18.44597 -72.94996,21.12013 -5.67407,0.59871 -31.6551,1.12555 -36.33898,0.73688 z M 136.4519,319.03406 c -0.63724,-0.89491 -1.27843,-1.62712 -1.42488,-1.62712 -0.34464,0 0.28551,1.10021 1.32025,2.30509 1.30346,1.51778 1.36842,1.09686 0.10463,-0.67797 z m -8.03616,-11.50735 c -0.38919,-0.38918 -0.64181,-0.4212 -0.64181,-0.0813 0,0.72395 0.64142,1.36536 1.00339,1.00339 0.15413,-0.15412 -0.009,-0.56904 -0.36158,-0.92204 z m -2.08176,-3.4313 c -0.17665,-0.46032 -0.4375,-0.72063 -0.57967,-0.57845 -0.14217,0.14217 -0.0976,0.5188 0.099,0.83695 0.53481,0.86533 0.8474,0.69722 0.48066,-0.2585 z"
     id="path906"
     inkscape:connector-curvature="0" /><path
     style="fill:#ffffff;fill-opacity:1;stroke-width:0.54237288"
     d="M 236.45907,469.56615 C 192.72272,464.97941 153.67021,448.92327 120.34725,421.82764 112.63709,415.55833 95.225479,397.95717 88.946376,390.08491 78.862177,377.4421 71.502999,365.98393 64.562099,352.11881 52.643762,328.31077 46.165862,306.48962 42.824059,278.89305 c -1.314,-10.851 -1.312109,-34.49247 0.0037,-45.82509 5.423187,-46.70931 24.145062,-87.75412 55.842251,-122.42549 35.34217,-38.658357 87.14648,-64.100621 138.87763,-68.205919 8.93999,-0.709462 27.23435,-0.710838 36.66701,-0.0028 45.75536,3.434719 93.55817,24.565206 126.73489,56.021174 14.52524,13.771885 23.56748,24.283625 32.98174,38.341805 18.3546,27.40868 29.19455,55.67391 34.52875,90.0339 1.10152,7.09538 1.22379,9.87981 1.25047,28.47458 0.0247,17.21629 -0.13485,21.77123 -0.9689,27.66101 -5.77315,40.76799 -20.79321,75.98319 -45.68843,107.11865 -7.31799,9.15232 -23.90649,25.79704 -32.49955,32.60971 -33.13592,26.2705 -69.14589,41.37461 -110.37288,46.29504 -10.22127,1.21991 -34.53006,1.54043 -43.72164,0.57649 z m -99.991,-150.50188 c -0.31041,-0.58 -0.84484,-1.22788 -1.18764,-1.43973 -0.41763,-0.25812 -0.47828,-0.13388 -0.18382,0.37657 1.16327,2.01654 2.39108,2.96834 1.37146,1.06316 z"
     id="path908"
     inkscape:connector-curvature="0" /><path
     style="fill:#ffffff;fill-opacity:1;stroke-width:0.54237288"
     d="M 238.14681,469.79203 C 193.68513,465.26003 155.53063,449.88131 121.47602,422.7662 114.38445,417.11972 96.036033,398.90915 90.13417,391.65982 63.741404,359.24125 47.715495,321.13613 42.824057,279.16965 41.680319,269.35686 41.517193,245.03037 42.531279,235.50864 46.911093,194.3845 61.393436,157.76083 85.949063,125.71157 122.64082,77.822592 178.30188,47.344688 238.14681,42.373803 c 9.90269,-0.822544 36.24435,-0.323239 44.74577,0.848153 45.28182,6.239292 86.84777,25.696746 118.20919,55.334957 13.9996,13.230367 23.47187,24.264337 32.82751,38.239857 18.42548,27.52409 29.29266,55.82588 34.46662,89.76271 1.48838,9.76247 2.09314,36.05664 1.11102,48.30542 -2.75136,34.31435 -15.30838,70.07677 -34.93369,99.49119 -35.69906,53.50576 -92.55404,87.9804 -156.56201,94.93308 -7.10201,0.77143 -33.91172,1.10961 -39.86441,0.50286 z M 136.4519,319.03406 c -0.3193,-0.59661 -0.70258,-1.08475 -0.85173,-1.08475 -0.14915,0 -0.01,0.48814 0.30935,1.08475 0.3193,0.59661 0.70258,1.08475 0.85173,1.08475 0.14915,0 0.01,-0.48814 -0.30935,-1.08475 z"
     id="path910"
     inkscape:connector-curvature="0" /><path
     style="fill:#ffffff;fill-opacity:1;stroke-width:0.54237288"
     d="m 240.58749,470.02367 c -42.91738,-3.91086 -80.87043,-18.26696 -113.5673,-42.95789 -15.00611,-11.33181 -30.912585,-27.27477 -42.307573,-42.4046 -20.135298,-26.73489 -33.543019,-57.22633 -39.589782,-90.0339 -2.590359,-14.05436 -3.254403,-21.91181 -3.254403,-38.50847 0,-16.5617 0.656034,-24.35207 3.242834,-38.50848 7.884767,-43.14983 28.243156,-81.79176 59.586344,-113.09987 33.97227,-33.934251 75.49786,-54.398446 124.50005,-61.35477 9.87469,-1.401806 43.26715,-1.398424 53.42373,0.0054 45.81305,6.332244 85.9825,25.116379 118.61289,55.466045 36.10955,33.585655 58.54799,75.418255 66.58474,124.135725 1.59236,9.65264 2.19274,18.94051 2.18756,33.84148 -0.005,15.33768 -0.52064,22.43561 -2.48481,34.22632 -6.49854,39.00988 -23.60395,75.37178 -49.61564,105.47063 -6.80315,7.8721 -19.71154,20.26878 -28.1661,27.04952 -31.20511,25.02719 -69.04476,40.87015 -109.01695,45.64392 -7.00084,0.8361 -34.512,1.54138 -40.13559,1.02893 z"
     id="path912"
     inkscape:connector-curvature="0" /><path
     style="fill:#ffffff;fill-opacity:1;stroke-width:0.54237288"
     d="M 240.3163,470.03007 C 213.69198,467.2961 192.96416,462.11754 171.09553,452.73623 142.60467,440.51409 117.83233,422.52787 95.637742,397.94931 70.05156,369.61487 52.222559,333.14784 45.122835,294.62728 42.557704,280.7098 41.874222,272.69055 41.863863,256.38999 41.853719,240.42564 42.322508,234.21912 44.567646,220.59338 57.842793,140.02657 117.90487,72.605242 196.4762,50.071875 c 20.81945,-5.970781 36.65024,-8.175694 58.75536,-8.183445 20.74471,-0.0073 34.48455,1.579828 52.22581,6.032651 46.40111,11.64608 86.23447,37.341703 116.75544,75.316369 5.53565,6.88753 15.03435,21.20926 19.78662,29.8334 12.3608,22.43163 20.94626,48.48654 24.68025,74.89899 1.17618,8.31966 1.68546,37.1539 0.83596,47.32965 -3.0073,36.02312 -16.77702,73.46874 -38.22068,103.93796 -10.2046,14.49969 -27.74241,33.13128 -41.55493,44.14658 -31.7105,25.28871 -68.75565,40.75936 -109.28813,45.6405 -6.71065,0.80813 -35.1254,1.52003 -40.1356,1.00554 z"
     id="path914"
     inkscape:connector-curvature="0" /><path
     style="fill:#ffffff;fill-opacity:1;stroke-width:0.54237288"
     d="M 235.43495,469.56315 C 194.53233,464.84253 158.84141,450.93766 127.59734,427.55059 111.30538,415.3556 92.609592,396.18056 81.129864,379.89197 65.679906,357.97002 54.477781,333.68146 48.10314,308.28311 39.946842,275.78615 39.468601,241.9795 46.70536,209.47474 65.076641,126.95794 131.15137,62.30463 214.01122,45.76802 c 14.09205,-2.812397 19.79615,-3.396555 36.33898,-3.72148 23.37991,-0.459216 37.20102,0.949339 56.85052,5.793827 82.98363,20.45921 146.01506,88.505423 160.34639,173.103553 1.87259,11.05397 2.46418,19.61698 2.46365,35.66043 -5e-4,15.54899 -0.472,22.04897 -2.47381,34.10342 -6.14816,37.02288 -21.55512,71.15141 -45.47274,100.72833 -6.25076,7.72979 -23.89169,25.3007 -31.44999,31.32514 -32.78241,26.12967 -70.99599,42.02463 -111.78944,46.49888 -8.96004,0.98274 -35.87185,1.17069 -43.38983,0.30303 z"
     id="path916"
     inkscape:connector-curvature="0" /><path
     style="fill:#ffffff;fill-opacity:1;stroke-width:0.54237288"
     d="m 238.96037,470.00808 c -1.34237,-0.13109 -6.69202,-0.84738 -11.8881,-1.59175 C 188.03735,462.82431 152.63615,447.6533 122.47479,423.59156 113.62695,416.53305 95.388077,398.30152 88.357351,389.48786 61.002405,355.19592 44.906469,313.57839 42.019909,269.67813 37.935559,207.56124 61.477733,146.49207 106.44029,102.56955 137.88626,71.850963 178.31086,51.408274 221.59658,44.335115 c 12.91772,-2.110839 21.73147,-2.61833 39.60108,-2.280209 17.13983,0.324312 22.71214,0.885317 36.88136,3.713114 86.99532,17.36194 154.7982,87.47804 169.47326,175.25514 1.91565,11.45822 2.44048,19.03478 2.4499,35.36683 0.011,19.08738 -0.84618,27.82135 -4.35971,44.42124 -6.78342,32.04874 -21.43145,62.81391 -42.50531,89.27368 -6.67029,8.37503 -24.59127,26.38861 -32.52294,32.69098 -32.61035,25.91163 -69.26062,41.34411 -109.89114,46.27233 -6.57789,0.79785 -36.40229,1.48333 -41.76271,0.95986 z"
     id="path918"
     inkscape:connector-curvature="0" /><path
     style="fill:#ffffff;fill-opacity:1;stroke-width:0.54237288"
     d="M 234.3502,469.50995 C 202.63659,465.56943 174.86766,456.57128 149.46885,442.00527 141.83224,437.62574 129.3913,429.15058 122.07902,423.34646 113.89597,416.85117 94.976589,397.8469 88.236124,389.35172 56.569176,349.44105 40.294123,300.64252 41.720688,249.88152 43.2331,196.06581 64.518246,145.76531 102.28241,106.76363 c 33.7885,-34.895737 77.01953,-56.611509 126.64406,-63.615738 10.20248,-1.440023 43.31124,-1.441266 53.96611,-0.002 59.9134,8.092993 111.57411,38.970748 147.30573,88.045068 18.64734,25.61052 31.71078,56.92769 37.29275,89.40245 1.97346,11.48122 2.50897,19.06368 2.50897,35.52543 0,16.2069 -0.53911,23.88135 -2.47649,35.25423 -6.25176,36.69924 -22.12241,71.5556 -45.66303,100.28876 -5.91461,7.21924 -18.76691,20.4088 -25.90409,26.58384 -32.49179,28.1117 -72.06812,45.56004 -115.23334,50.80386 -10.04651,1.22048 -38.02065,1.49824 -46.37288,0.46045 z"
     id="path920"
     inkscape:connector-curvature="0" /></svg>